<svg width="55" height="55" viewBox="0 0 55 55" fill="none" xmlns="http://www.w3.org/2000/svg">
<g clip-path="url(#clip0)">
<path d="M27.5 -3.05176e-05C22.061 -3.05176e-05 16.7442 1.61281 12.2218 4.63455C7.69948 7.65629 4.17473 11.9512 2.09332 16.9762C0.0119147 22.0011 -0.532676 27.5305 0.528417 32.865C1.58951 38.1994 4.20863 43.0995 8.05457 46.9454C11.9005 50.7914 16.8006 53.4105 22.135 54.4716C27.4695 55.5327 32.9988 54.9881 38.0238 52.9067C43.0488 50.8252 47.3437 47.3005 50.3654 42.7781C53.3872 38.2558 55 32.939 55 27.5C54.9998 20.2066 52.1024 13.212 46.9452 8.05479C41.788 2.89759 34.7934 0.000202584 27.5 -3.05176e-05ZM46.6221 40.4062H26.8287L25.6679 35.5293H17.761L16.5037 40.4062H7.87729L17.0044 13.9187H26.9029L29.5175 21.9814V13.9187H37.4987V34.1645H46.6221V40.4062Z" fill="white"/>
<path d="M24.1882 29.8587H19.1295C20.4684 24.7222 21.2126 21.8158 21.3622 21.1396C21.4764 20.6591 21.5631 20.1724 21.6218 19.682H21.8072C21.9178 20.6844 22.0962 21.6782 22.3413 22.6564L24.1882 29.8587Z" fill="white"/>
</g>
<defs>
<clipPath id="clip0">
<rect width="55" height="55" fill="white"/>
</clipPath>
</defs>
</svg>
